<svg width="20" height="20" viewBox="0 0 20 20" fill="none" xmlns="http://www.w3.org/2000/svg">
<path fill-rule="evenodd" clip-rule="evenodd" d="M12.0116 7.20607L12.0137 2.40127C12.015 1.0763 10.9374 -0.00129811 9.61239 -2.50234e-05C8.28232 -0.00214621 7.2064 1.07378 7.20894 2.40342L7.20721 7.20775L2.40288 7.20949C1.07366 7.20652 -0.00227719 8.28245 -0.000155917 9.61252C-0.00142864 10.9375 1.07616 12.0151 2.40114 12.0138L7.20552 12.0121L7.20809 16.8208C7.20681 18.1457 8.28446 19.2234 9.60943 19.2221C10.9395 19.2242 12.0154 18.1483 12.0125 16.8191L12.0142 12.0147L16.8185 12.013C18.1482 12.0156 19.2241 10.9396 19.222 9.60957C19.2233 8.28459 18.1456 7.20694 16.8206 7.20822L12.0116 7.20607Z" fill="#FEDD2C"/>
</svg>
