<svg width="22" height="22" viewBox="0 0 22 22" fill="none" xmlns="http://www.w3.org/2000/svg">
<g clip-path="url(#clip0_535_28)">
<path d="M0.916992 17.3167C0.917044 17.5598 1.01366 17.793 1.18558 17.9648L4.03366 20.8147C4.20556 20.9866 4.43867 21.0831 4.68174 21.0831C4.92481 21.0831 5.15792 20.9866 5.32982 20.8147L12.456 13.6895L15.3087 10.8387C15.4805 10.6668 15.577 10.4336 15.577 10.1906C15.577 9.9475 15.4805 9.71439 15.3087 9.54249L12.4578 6.69166C12.2859 6.51981 12.0528 6.42327 11.8097 6.42327C11.5667 6.42327 11.3336 6.51981 11.1617 6.69166L8.31174 9.54157L1.18558 16.6687C1.01366 16.8405 0.917044 17.0736 0.916992 17.3167ZM11.8097 8.63682L13.3681 10.1952L11.8097 11.7535L10.256 10.1952L11.8097 8.63682ZM8.95982 11.4867L10.5182 13.0451L4.68816 18.8742L3.13441 17.3158L8.95982 11.4867ZM18.1586 5.13791L16.7332 6.56332C16.5603 6.7303 16.3287 6.8227 16.0884 6.82061C15.848 6.81852 15.6181 6.72211 15.4482 6.55216C15.2782 6.3822 15.1818 6.15229 15.1797 5.91194C15.1776 5.67159 15.27 5.44004 15.437 5.26716L16.867 3.84174C16.9515 3.75419 17.0527 3.68436 17.1645 3.63631C17.2764 3.58827 17.3967 3.56298 17.5184 3.56193C17.6401 3.56087 17.7608 3.58406 17.8734 3.63015C17.9861 3.67624 18.0885 3.74431 18.1745 3.83038C18.2606 3.91645 18.3287 4.01879 18.3747 4.13145C18.4208 4.2441 18.444 4.36481 18.443 4.48652C18.4419 4.60824 18.4166 4.72852 18.3686 4.84036C18.3205 4.9522 18.2507 5.05335 18.1632 5.13791H18.1586ZM21.0837 10.9083C21.0837 11.1514 20.9871 11.3846 20.8152 11.5565C20.6433 11.7284 20.4101 11.825 20.167 11.825H18.1503C17.9072 11.825 17.6741 11.7284 17.5021 11.5565C17.3302 11.3846 17.2337 11.1514 17.2337 10.9083C17.2337 10.6652 17.3302 10.432 17.5021 10.2601C17.6741 10.0882 17.9072 9.99166 18.1503 9.99166H20.167C20.4101 9.99166 20.6433 10.0882 20.8152 10.2601C20.9871 10.432 21.0837 10.6652 21.0837 10.9083ZM18.1586 16.6732C18.2546 16.7553 18.3326 16.8564 18.3877 16.9701C18.4428 17.0838 18.4738 17.2076 18.4788 17.3339C18.4837 17.4601 18.4626 17.586 18.4166 17.7037C18.3706 17.8213 18.3007 17.9282 18.2115 18.0176C18.1222 18.107 18.0154 18.177 17.8978 18.2232C17.7802 18.2693 17.6543 18.2907 17.5281 18.2859C17.4018 18.2811 17.2779 18.2503 17.1642 18.1954C17.0504 18.1404 16.9492 18.0626 16.867 17.9667L15.437 16.5394C15.3494 16.4548 15.2796 16.3537 15.2316 16.2419C15.1835 16.13 15.1582 16.0097 15.1572 15.888C15.1561 15.7663 15.1793 15.6456 15.2254 15.5329C15.2715 15.4203 15.3396 15.3179 15.4256 15.2319C15.5117 15.1458 15.614 15.0777 15.7267 15.0317C15.8394 14.9856 15.9601 14.9624 16.0818 14.9634C16.2035 14.9645 16.3238 14.9898 16.4356 15.0378C16.5474 15.0859 16.6486 15.1557 16.7332 15.2432L18.1586 16.6732ZM5.33166 3.84174L6.75707 5.26716C6.84463 5.35172 6.91446 5.45287 6.9625 5.5647C7.01054 5.67654 7.03583 5.79682 7.03689 5.91854C7.03795 6.04025 7.01475 6.16096 6.96866 6.27361C6.92257 6.38627 6.85451 6.48862 6.76844 6.57468C6.68237 6.66075 6.58002 6.72882 6.46737 6.77491C6.35471 6.821 6.234 6.84419 6.11229 6.84314C5.99058 6.84208 5.87029 6.81679 5.75845 6.76875C5.64662 6.72071 5.54547 6.65087 5.46091 6.56332L4.03366 5.13791C3.94855 5.05268 3.88106 4.95152 3.83505 4.84021C3.78904 4.7289 3.7654 4.60962 3.76548 4.48918C3.76557 4.36873 3.78938 4.24948 3.83555 4.13824C3.88172 4.02699 3.94935 3.92593 4.03458 3.84082C4.1198 3.75572 4.22096 3.68823 4.33227 3.64221C4.44358 3.5962 4.56286 3.57256 4.68331 3.57265C4.80375 3.57273 4.923 3.59654 5.03425 3.64271C5.14549 3.68888 5.24655 3.75651 5.33166 3.84174ZM11.0975 0.916656C11.3406 0.916656 11.5738 1.01323 11.7457 1.18514C11.9176 1.35705 12.0142 1.59021 12.0142 1.83332V3.84999C12.0142 4.0931 11.9176 4.32626 11.7457 4.49817C11.5738 4.67008 11.3406 4.76666 11.0975 4.76666C10.8544 4.76666 10.6212 4.67008 10.4493 4.49817C10.2774 4.32626 10.1808 4.0931 10.1808 3.84999V1.83332C10.1808 1.59021 10.2774 1.35705 10.4493 1.18514C10.6212 1.01323 10.8544 0.916656 11.0975 0.916656Z" fill="#939393"/>
</g>
<defs>
<clipPath id="clip0_535_28">
<rect width="22" height="22" fill="white"/>
</clipPath>
</defs>
</svg>
