<svg width="22" height="23" viewBox="0 0 22 23" fill="none" xmlns="http://www.w3.org/2000/svg">
<path d="M20.5 12.5459C21.3284 12.5459 22 11.8743 22 11.0459C22 10.2175 21.3284 9.5459 20.5 9.5459V11.0459V12.5459ZM0.439341 9.98524C-0.146446 10.571 -0.146446 11.5208 0.439341 12.1066L9.98528 21.6525C10.5711 22.2383 11.5208 22.2383 12.1066 21.6525C12.6924 21.0667 12.6924 20.117 12.1066 19.5312L3.62132 11.0459L12.1066 2.56062C12.6924 1.97483 12.6924 1.02508 12.1066 0.439297C11.5208 -0.14649 10.5711 -0.14649 9.98528 0.439297L0.439341 9.98524ZM20.5 11.0459V9.5459L1.5 9.5459V11.0459V12.5459L20.5 12.5459V11.0459Z" fill="#4290DB"/>
</svg>
