<svg width="27" height="27" viewBox="0 0 27 27" fill="none" xmlns="http://www.w3.org/2000/svg">
<g clip-path="url(#clip0_440_16)">
<path d="M13.5 0C8.89196 0 5.15633 3.73563 5.15633 8.34375V9.37501C5.15633 11.1896 4.97563 12.8614 4.67341 14.2364C4.56613 14.7244 4.79364 15.2247 5.23195 15.4647C5.67026 15.7047 6.21434 15.6267 6.56768 15.2734L18.541 3.30016C18.7735 3.0676 18.8926 2.74493 18.867 2.41705C18.8413 2.08916 18.6736 1.78891 18.4077 1.59528C17.0304 0.592149 15.3327 0 13.5 0Z" fill="#353535"/>
<path fill-rule="evenodd" clip-rule="evenodd" d="M26.2727 3.1137C26.712 2.67435 26.712 1.96205 26.2727 1.5227L25.4772 0.727211C25.0379 0.28787 24.3255 0.28787 23.8862 0.727211L0.72721 23.8862C0.287871 24.3255 0.28787 25.0379 0.727209 25.4772L1.5227 26.2727C1.96205 26.7121 2.67435 26.7121 3.1137 26.2727L9.37081 20.0156H23.8125C24.4339 20.0156 24.9375 19.5119 24.9375 18.8906V18.6562C24.9375 18.0389 24.4403 17.5377 23.8245 17.5313C23.7981 17.5231 23.6837 17.4739 23.4919 17.2305C23.2328 16.9017 22.9503 16.3563 22.6922 15.582C22.1799 14.0453 21.8438 11.8506 21.8438 9.37496V8.34371C21.8438 8.08556 21.8321 7.82993 21.809 7.57739L26.2727 3.1137Z" fill="#353535"/>
<path d="M10.4063 21.9375C9.98152 21.9375 9.59299 22.1767 9.40174 22.5559C9.2105 22.9353 9.24916 23.3899 9.50169 23.7313C10.4378 24.9974 11.852 25.875 13.5 25.875C15.1481 25.875 16.5622 24.9974 17.4983 23.7313C17.7509 23.3899 17.7896 22.9353 17.5983 22.5559C17.4071 22.1767 17.0185 21.9375 16.5938 21.9375H10.4063Z" fill="#353535"/>
</g>
<defs>
<clipPath id="clip0_440_16">
<rect width="27" height="27" fill="white"/>
</clipPath>
</defs>
</svg>
