<svg width="27" height="27" viewBox="0 0 27 27" fill="none" xmlns="http://www.w3.org/2000/svg">
<path fill-rule="evenodd" clip-rule="evenodd" d="M5.15649 8.34375C5.15649 3.73563 8.89211 0 13.5003 0C18.1084 0 21.844 3.73563 21.844 8.34375V9.37501C21.844 11.8506 22.1801 14.0453 22.6924 15.582C22.9505 16.3564 23.233 16.9018 23.4921 17.2305C23.6839 17.4739 23.7984 17.5231 23.8246 17.5313C24.4405 17.5377 24.9377 18.0389 24.9377 18.6562V18.8907C24.9377 19.512 24.434 20.0157 23.8127 20.0157H3.18774C2.56642 20.0157 2.06274 19.512 2.06274 18.8907V18.6562C2.06274 18.0389 2.56001 17.5377 3.17584 17.5313C3.2021 17.5231 3.31656 17.4739 3.50838 17.2305C3.76747 16.9018 4.04999 16.3564 4.30809 15.582C4.82034 14.0453 5.15649 11.8506 5.15649 9.37501V8.34375ZM3.17001 17.5328L3.17305 17.5321L3.17127 17.5326L3.17001 17.5328Z" fill="#FEDD2C"/>
<path d="M10.4064 21.9375C9.98164 21.9375 9.59311 22.1767 9.40187 22.5559C9.21062 22.9353 9.24928 23.3899 9.5018 23.7313C10.4379 24.9974 11.8521 25.875 13.5001 25.875C15.1481 25.875 16.5623 24.9974 17.4985 23.7313C17.751 23.3899 17.7896 22.9353 17.5984 22.5559C17.4071 22.1767 17.0186 21.9375 16.5938 21.9375H10.4064Z" fill="#FEDD2C"/>
</svg>
