<svg width="18" height="14" viewBox="0 0 18 14" fill="none" xmlns="http://www.w3.org/2000/svg">
<path d="M6.34948 13.0475C6.20094 13.047 6.05408 13.016 5.91804 12.9564C5.78199 12.8967 5.65966 12.8098 5.55865 12.7008L0.293651 7.10001C0.0968382 6.89027 -0.00859378 6.61093 0.000548616 6.32346C0.00969101 6.03598 0.132659 5.76391 0.342401 5.56709C0.552143 5.37028 0.831478 5.26485 1.11896 5.27399C1.40643 5.28313 1.6785 5.4061 1.87532 5.61584L6.33865 10.3717L15.4495 0.40501C15.5419 0.289876 15.657 0.19486 15.7875 0.125796C15.918 0.0567319 16.0613 0.0150792 16.2085 0.00339618C16.3557 -0.00828687 16.5037 0.0102464 16.6435 0.0578575C16.7832 0.105469 16.9118 0.181152 17.0213 0.28026C17.1307 0.379368 17.2188 0.499808 17.28 0.634182C17.3412 0.768556 17.3743 0.914027 17.3773 1.06166C17.3802 1.20929 17.353 1.35597 17.2972 1.49269C17.2414 1.6294 17.1582 1.75327 17.0528 1.85668L7.15115 12.69C7.0511 12.8009 6.92919 12.8899 6.7931 12.9514C6.657 13.0129 6.50966 13.0457 6.36032 13.0475H6.34948Z" fill="#939393"/>
</svg>
