<?xml version="1.0" encoding="utf-8" ?>
<svg baseProfile="full" height="76" version="1.1" width="76" xmlns="http://www.w3.org/2000/svg"
><defs /><polygon fill="blue" points="33.0,46.5 32.0,46.5 31.5,46.0 31.0,45.5 30.5,45.0 30.0,44.5 29.5,44.0 29.0,43.5 28.5,43.0 28.0,42.5 27.5,42.0 27.0,41.5 26.5,41.0 26.5,40.0 26.0,39.5 25.5,39.0 25.5,38.0 25.5,37.0 25.5,36.0 25.5,35.0 25.5,34.0 25.5,33.0 25.5,32.0 25.5,31.0 26.0,30.5 26.5,30.0 27.0,29.5 27.5,29.0 27.5,28.0 28.0,27.5 28.5,27.0 29.0,26.5 29.5,26.0 30.0,25.5 30.5,25.0 31.0,24.5 31.5,24.0 32.0,23.5 32.5,23.0 33.0,22.5 33.5,22.0 34.0,21.5 34.5,21.0 35.0,20.5 35.5,20.0 36.0,19.5 36.5,19.0 37.0,18.5 37.5,18.0 38.0,17.5 38.5,17.0 39.0,16.5 39.5,16.0 40.0,15.5 40.5,15.0 41.0,14.5 41.5,14.0 42.0,13.5 43.0,13.5 43.5,13.0 44.0,12.5 45.0,12.5 45.5,12.0 46.0,11.5 47.0,11.5 48.0,11.5 49.0,11.5 50.0,11.5 51.0,11.5 51.5,12.0 52.0,12.5 53.0,12.5 53.5,13.0 54.0,13.5 55.0,13.5 55.5,14.0 56.0,14.5 56.5,15.0 57.0,15.5 57.5,16.0 58.0,16.5 58.5,17.0 59.0,17.5 59.5,18.0 60.0,18.5 60.5,19.0 61.0,19.5 61.5,20.0 61.5,21.0 62.0,21.5 62.5,22.0 62.5,23.0 62.5,24.0 63.0,24.5 63.5,25.0 63.5,26.0 63.5,27.0 63.0,27.5 62.5,28.0 62.5,29.0 62.5,30.0 62.0,30.5 61.5,31.0 61.5,32.0 61.0,32.5 60.5,33.0 60.0,33.5 59.5,34.0 59.0,34.5 58.5,35.0 58.0,35.5 57.5,36.0 57.0,36.5 56.5,37.0 56.0,37.5 55.5,38.0 55.0,38.5 54.5,39.0 54.0,39.5 53.5,40.0 53.0,40.5 52.0,40.5 51.5,40.0 51.0,39.5 50.5,39.0 50.5,38.0 50.5,37.0 50.5,36.0 50.5,35.0 50.5,34.0 50.5,33.0 51.0,32.5 51.5,32.0 52.0,31.5 52.5,31.0 53.0,30.5 53.5,30.0 54.0,29.5 54.5,29.0 55.0,28.5 55.5,28.0 55.5,27.0 55.5,26.0 55.5,25.0 55.0,24.5 54.5,24.0 54.5,23.0 54.0,22.5 53.5,22.0 53.0,21.5 52.5,21.0 52.0,20.5 51.5,20.0 51.0,19.5 50.0,19.5 49.0,19.5 48.0,19.5 47.0,19.5 46.5,20.0 46.0,20.5 45.5,21.0 45.0,21.5 44.5,22.0 44.0,22.5 43.5,23.0 43.0,23.5 42.5,24.0 42.0,24.5 41.5,25.0 41.0,25.5 40.5,26.0 40.0,26.5 39.5,27.0 39.0,27.5 38.5,28.0 38.0,28.5 37.5,29.0 37.0,29.5 36.5,30.0 36.0,30.5 35.5,31.0 35.0,31.5 34.5,32.0 34.0,32.5 33.5,33.0 33.0,33.5 32.5,34.0 32.5,35.0 32.5,36.0 32.5,37.0 33.0,37.5 33.5,38.0 34.0,38.5 34.5,39.0 34.5,40.0 34.5,41.0 34.5,42.0 34.5,43.0 34.5,44.0 34.0,44.5 33.5,45.0 33.5,46.0 33.0,46.5" stroke="none" /><polygon fill="blue" points="29.0,63.5 28.0,63.5 27.0,63.5 26.0,63.5 25.0,63.5 24.0,63.5 23.0,63.5 22.0,63.5 21.0,63.5 20.5,63.0 20.0,62.5 19.0,62.5 18.5,62.0 18.0,61.5 17.5,61.0 17.0,60.5 16.5,60.0 16.0,59.5 15.5,59.0 15.0,58.5 14.5,58.0 14.0,57.5 13.5,57.0 13.0,56.5 12.5,56.0 12.5,55.0 12.0,54.5 11.5,54.0 11.5,53.0 11.5,52.0 11.0,51.5 10.5,51.0 10.5,50.0 10.5,49.0 10.5,48.0 11.0,47.5 11.5,47.0 11.5,46.0 11.5,45.0 12.0,44.5 12.5,44.0 13.0,43.5 13.5,43.0 13.5,42.0 14.0,41.5 14.5,41.0 15.0,40.5 15.5,40.0 16.0,39.5 16.5,39.0 17.0,38.5 17.5,38.0 18.0,37.5 18.5,37.0 19.0,36.5 19.5,36.0 20.0,35.5 21.0,35.5 22.0,35.5 22.5,36.0 23.0,36.5 23.5,37.0 23.5,38.0 23.5,39.0 23.5,40.0 23.5,41.0 23.5,42.0 23.0,42.5 22.5,43.0 22.5,44.0 22.0,44.5 21.5,45.0 21.0,45.5 20.5,46.0 20.0,46.5 19.5,47.0 19.0,47.5 18.5,48.0 18.5,49.0 18.5,50.0 18.5,51.0 19.0,51.5 19.5,52.0 20.0,52.5 20.5,53.0 21.0,53.5 21.5,54.0 22.0,54.5 22.5,55.0 23.0,55.5 23.5,56.0 24.0,56.5 25.0,56.5 26.0,56.5 26.5,56.0 27.0,55.5 28.0,55.5 28.5,55.0 29.0,54.5 29.5,54.0 30.0,53.5 30.5,53.0 31.0,52.5 31.5,52.0 32.0,51.5 32.5,51.0 33.0,50.5 33.5,50.0 34.0,49.5 34.5,49.0 35.0,48.5 35.5,48.0 36.0,47.5 36.5,47.0 37.0,46.5 37.5,46.0 38.0,45.5 38.5,45.0 39.0,44.5 39.5,44.0 40.0,43.5 40.5,43.0 40.5,42.0 41.0,41.5 41.5,41.0 41.5,40.0 41.5,39.0 41.0,38.5 40.5,38.0 40.0,37.5 39.5,37.0 39.5,36.0 39.5,35.0 39.0,34.5 38.5,34.0 39.0,33.5 39.5,33.0 39.5,32.0 39.5,31.0 40.0,30.5 40.5,30.0 41.0,29.5 42.0,29.5 43.0,29.5 43.5,30.0 44.0,30.5 44.5,31.0 44.5,32.0 45.0,32.5 45.5,33.0 46.0,33.5 46.5,34.0 47.0,34.5 47.5,35.0 48.0,35.5 48.5,36.0 48.5,37.0 48.5,38.0 48.5,39.0 48.5,40.0 48.5,41.0 48.5,42.0 48.5,43.0 48.5,44.0 48.0,44.5 47.5,45.0 47.5,46.0 47.0,46.5 46.5,47.0 46.0,47.5 45.5,48.0 45.0,48.5 44.5,49.0 44.0,49.5 43.5,50.0 43.0,50.5 42.5,51.0 42.0,51.5 41.5,52.0 41.0,52.5 40.5,53.0 40.0,53.5 39.5,54.0 39.0,54.5 38.5,55.0 38.0,55.5 37.5,56.0 37.0,56.5 36.5,57.0 36.0,57.5 35.5,58.0 35.0,58.5 34.5,59.0 34.0,59.5 33.5,60.0 33.0,60.5 32.5,61.0 32.0,61.5 31.5,62.0 31.0,62.5 30.0,62.5 29.5,63.0 29.0,63.5" stroke="none" /></svg>
