<svg width="15" height="15" viewBox="0 0 15 15" fill="none" xmlns="http://www.w3.org/2000/svg">
<path fill-rule="evenodd" clip-rule="evenodd" d="M10.8986 7.49847L14.2975 4.10245C15.2353 3.16645 15.2353 1.6425 14.2975 0.7065C13.3585 -0.2355 11.837 -0.2355 10.8986 0.7065L7.50015 4.10245L4.10175 0.7065C3.16395 -0.2355 1.64235 -0.2355 0.70335 0.7065C-0.23445 1.6425 -0.23445 3.16645 0.70335 4.10245L4.10175 7.49847L0.70335 10.9005C-0.23445 11.8365 -0.23445 13.3605 0.70335 14.2965C1.64235 15.2385 3.16395 15.2385 4.10175 14.2965L7.50015 10.9005L10.8986 14.2965C11.837 15.2385 13.3585 15.2385 14.2975 14.2965C15.2353 13.3605 15.2353 11.8365 14.2975 10.9005L10.8986 7.49847Z" fill="#939393"/>
</svg>
