<svg width="13" height="23" viewBox="0 0 13 23" fill="none" xmlns="http://www.w3.org/2000/svg">
<path d="M2.14858 12.7947C2.97667 12.7712 3.62896 12.0809 3.60549 11.2528C3.58203 10.4247 2.89171 9.77242 2.06362 9.79588L2.1061 11.2953L2.14858 12.7947ZM0.409732 10.2823C-0.15923 10.8844 -0.132334 11.8338 0.469806 12.4027L10.2823 21.6745C10.8844 22.2435 11.8338 22.2166 12.4027 21.6144C12.9717 21.0123 12.9448 20.0629 12.3426 19.494L3.62047 11.2524L11.8621 2.5302C12.431 1.92806 12.4041 0.978693 11.802 0.409731C11.1998 -0.159232 10.2505 -0.132335 9.68151 0.469805L0.409732 10.2823ZM2.1061 11.2953L2.06362 9.79588L1.45753 9.81305L1.5 11.3124L1.54248 12.8118L2.14858 12.7947L2.1061 11.2953Z" fill="#939393"/>
</svg>
