<svg width="24" height="24" viewBox="0 0 24 24" fill="none" xmlns="http://www.w3.org/2000/svg">
  <path d="M13 4L13.7071 3.29289C13.5196 3.10536 13.2652 3 13 3V4ZM19 10H20C20 9.73478 19.8946 9.48043 19.7071 9.29289L19 10ZM10 14C10 13.4477 9.55228 13 9 13C8.44772 13 8 13.4477 8 14H10ZM8 17C8 17.5523 8.44772 18 9 18C9.55228 18 10 17.5523 10 17H8ZM8.5 10C7.94772 10 7.5 10.4477 7.5 11C7.5 11.5523 7.94772 12 8.5 12V10ZM9.5 12C10.0523 12 10.5 11.5523 10.5 11C10.5 10.4477 10.0523 10 9.5 10V12ZM8.5 7C7.94772 7 7.5 7.44772 7.5 8C7.5 8.55228 7.94772 9 8.5 9V7ZM9.5 9C10.0523 9 10.5 8.55228 10.5 8C10.5 7.44772 10.0523 7 9.5 7V9ZM12 4V8.4H14V4H12ZM14.6 11H19V9H14.6V11ZM12 8.4C12 8.66353 11.9992 8.92131 12.0169 9.13823C12.0356 9.36682 12.0797 9.63656 12.218 9.90798L14 9C14.0293 9.05751 14.0189 9.08028 14.0103 8.97537C14.0008 8.85878 14 8.69653 14 8.4H12ZM14.6 9C14.3035 9 14.1412 8.99922 14.0246 8.9897C13.9197 8.98113 13.9425 8.9707 14 9L13.092 10.782C13.3634 10.9203 13.6332 10.9644 13.8618 10.9831C14.0787 11.0008 14.3365 11 14.6 11V9ZM12.218 9.90798C12.4097 10.2843 12.7157 10.5903 13.092 10.782L14 9L12.218 9.90798ZM8 14V17H10V14H8ZM8.5 12H9.5V10H8.5V12ZM8.5 9H9.5V7H8.5V9ZM13 3H8.2V5H13V3ZM4 7.2V18.8H6V7.2H4ZM8.2 23H15.8V21H8.2V23ZM20 18.8V10H18V18.8H20ZM19.7071 9.29289L13.7071 3.29289L12.2929 4.70711L18.2929 10.7071L19.7071 9.29289ZM15.8 23C16.3436 23 16.8114 23.0008 17.195 22.9694C17.5904 22.9371 17.9836 22.8658 18.362 22.673L17.454 20.891C17.4045 20.9162 17.3038 20.9539 17.0322 20.9761C16.7488 20.9992 16.3766 21 15.8 21V23ZM18 18.8C18 19.3766 17.9992 19.7488 17.9761 20.0322C17.9539 20.3038 17.9162 20.4045 17.891 20.454L19.673 21.362C19.8658 20.9836 19.9371 20.5904 19.9694 20.195C20.0008 19.8114 20 19.3436 20 18.8H18ZM18.362 22.673C18.9265 22.3854 19.3854 21.9265 19.673 21.362L17.891 20.454C17.7951 20.6422 17.6422 20.7951 17.454 20.891L18.362 22.673ZM4 18.8C4 19.3436 3.99922 19.8114 4.03057 20.195C4.06287 20.5904 4.13419 20.9836 4.32698 21.362L6.10899 20.454C6.0838 20.4045 6.04612 20.3038 6.02393 20.0322C6.00078 19.7488 6 19.3766 6 18.8H4ZM8.2 21C7.62345 21 7.25117 20.9992 6.96784 20.9761C6.69617 20.9539 6.59545 20.9162 6.54601 20.891L5.63803 22.673C6.01641 22.8658 6.40963 22.9371 6.80497 22.9694C7.18864 23.0008 7.65645 23 8.2 23V21ZM4.32698 21.362C4.6146 21.9265 5.07354 22.3854 5.63803 22.673L6.54601 20.891C6.35785 20.7951 6.20487 20.6422 6.10899 20.454L4.32698 21.362ZM8.2 3C7.65645 3 7.18864 2.99922 6.80497 3.03057C6.40963 3.06287 6.01641 3.13419 5.63803 3.32698L6.54601 5.10899C6.59545 5.0838 6.69617 5.04612 6.96784 5.02393C7.25117 5.00078 7.62345 5 8.2 5V3ZM6 7.2C6 6.62345 6.00078 6.25117 6.02393 5.96784C6.04612 5.69617 6.0838 5.59545 6.10899 5.54601L4.32698 4.63803C4.13419 5.01641 4.06287 5.40963 4.03057 5.80497C3.99922 6.18864 4 6.65645 4 7.2H6ZM5.63803 3.32698C5.07354 3.6146 4.6146 4.07354 4.32698 4.63803L6.10899 5.54601C6.20487 5.35785 6.35785 5.20487 6.54601 5.10899L5.63803 3.32698Z" fill="#353535"/>
</svg>
