<?xml version="1.0" encoding="UTF-8" standalone="no"?>
<svg
   width="26"
   height="26"
   viewBox="0 0 26 26"
   fill="none"
   version="1.1"
   id="svg2"
   xmlns="http://www.w3.org/2000/svg"
   xmlns:svg="http://www.w3.org/2000/svg">
  <defs
     id="defs2" />
  <path
     opacity="0.2"
     fill-rule="evenodd"
     clip-rule="evenodd"
     d="m 13,2.4375 c -2.8013,0 -5.48796,1.11283 -7.46882,3.09368 C 3.55033,7.51204 2.4375,10.1987 2.4375,13 c 0,2.8013 1.11283,5.488 3.09368,7.4688 1.98086,1.9809 4.66752,3.0937 7.46882,3.0937 2.8013,0 5.488,-1.1128 7.4688,-3.0937 1.9809,-1.9808 3.0937,-4.6675 3.0937,-7.4688 0,-2.8013 -1.1128,-5.48796 -3.0937,-7.46882 C 18.488,3.55033 15.8013,2.4375 13,2.4375 Z M 0,13 C 0,9.55219 1.36964,6.24558 3.80761,3.80761 6.24558,1.36964 9.55219,0 13,0 16.4478,0 19.7544,1.36964 22.1924,3.80761 24.6304,6.24558 26,9.55219 26,13 26,16.4478 24.6304,19.7544 22.1924,22.1924 19.7544,24.6304 16.4478,26 13,26 9.55219,26 6.24558,24.6304 3.80761,22.1924 1.36964,19.7544 0,16.4478 0,13 Z"
     fill="#353535"
     id="path1" />
  <path
     fill-rule="evenodd"
     clip-rule="evenodd"
     d="m 11.7812,1.21875 c 0,-0.323233 0.1285,-0.633226 0.357,-0.861786 C 12.3668,0.128404 12.6768,0 13,0 16.4478,0 19.7544,1.36964 22.1924,3.80761 24.6304,6.24558 26,9.55219 26,13 c 0,0.3232 -0.1284,0.6332 -0.357,0.8618 -0.2285,0.2285 -0.5385,0.357 -0.8618,0.357 -0.3232,0 -0.6332,-0.1285 -0.8617,-0.357 -0.2286,-0.2286 -0.357,-0.5386 -0.357,-0.8618 0,-2.8013 -1.1128,-5.48796 -3.0937,-7.46882 C 18.488,3.55033 15.8013,2.4375 13,2.4375 12.6768,2.4375 12.3668,2.3091 12.1382,2.08054 11.9097,1.85198 11.7813,1.54198 11.7812,1.21875 Z"
     fill="#353535"
     id="path2" />
</svg>
