<svg width="278" height="278" viewBox="0 0 278 278" fill="none" xmlns="http://www.w3.org/2000/svg">
<path d="M139 167.958V191.125M81.0835 116.167C86.5441 115.833 93.276 115.833 101.933 115.833H176.067C184.724 115.833 191.456 115.833 196.917 116.167M81.0835 116.167C74.2688 116.583 69.434 117.519 65.3073 119.621C58.7687 122.952 53.4526 128.268 50.121 134.807C46.3335 142.241 46.3335 151.971 46.3335 171.433V187.65C46.3335 207.112 46.3335 216.842 50.121 224.276C53.4526 230.815 58.7687 236.131 65.3073 239.462C72.7407 243.25 82.4716 243.25 101.933 243.25H176.067C195.529 243.25 205.259 243.25 212.693 239.462C219.232 236.131 224.548 230.815 227.879 224.276C231.667 216.842 231.667 207.112 231.667 187.65V171.433C231.667 151.971 231.667 142.241 227.879 134.807C224.548 128.268 219.232 122.952 212.693 119.621C208.566 117.519 203.731 116.583 196.917 116.167M81.0835 116.167V92.6667C81.0835 60.6802 107.014 34.75 139 34.75C170.986 34.75 196.917 60.6802 196.917 92.6667V116.167" stroke="#939393" stroke-opacity="0.47" stroke-width="18" stroke-linecap="round" stroke-linejoin="round"/>
</svg>
