<svg width="24" height="18" viewBox="0 0 24 18" fill="none" xmlns="http://www.w3.org/2000/svg">
<path d="M8.76925 18C8.5641 17.9993 8.36127 17.9565 8.17338 17.8743C7.98548 17.792 7.81654 17.672 7.67703 17.5217L0.40556 9.79499C0.133743 9.50563 -0.0118688 9.12027 0.000757692 8.72367C0.0133842 8.32708 0.183215 7.95173 0.472889 7.68021C0.762563 7.4087 1.14835 7.26325 1.54539 7.27586C1.94242 7.28847 2.31818 7.45811 2.58999 7.74747L8.75429 14.3085L21.3372 0.558742C21.4649 0.399906 21.6238 0.268823 21.804 0.173544C21.9843 0.0782658 22.1821 0.0208029 22.3854 0.00468528C22.5887 -0.0114323 22.7932 0.0141357 22.9862 0.0798187C23.1793 0.145502 23.3568 0.249913 23.508 0.386639C23.6592 0.523366 23.7808 0.689521 23.8653 0.8749C23.9499 1.06028 23.9956 1.26097 23.9997 1.46464C24.0038 1.66831 23.9661 1.87066 23.8891 2.05927C23.812 2.24788 23.6972 2.41876 23.5516 2.56142L9.87643 17.5068C9.73824 17.6598 9.56988 17.7826 9.38192 17.8674C9.19396 17.9523 8.99047 17.9974 8.78421 18H8.76925Z" fill="#353535"/>
</svg>
