<svg width="13" height="23" viewBox="0 0 13 23" fill="none" xmlns="http://www.w3.org/2000/svg">
<path d="M10.6639 12.7947C9.83578 12.7712 9.18349 12.0809 9.20695 11.2528C9.23041 10.4247 9.92073 9.77242 10.7488 9.79588L10.7064 11.2953L10.6639 12.7947ZM12.4027 10.2823C12.9717 10.8844 12.9448 11.8338 12.3426 12.4027L2.53019 21.6745C1.92805 22.2435 0.978687 22.2166 0.409725 21.6144C-0.159238 21.0123 -0.132342 20.0629 0.469799 19.494L9.19197 11.2524L0.950392 2.5302C0.38143 1.92806 0.408326 0.978693 1.01047 0.409731C1.61261 -0.159232 2.56197 -0.132335 3.13094 0.469805L12.4027 10.2823ZM10.7064 11.2953L10.7488 9.79588L11.3549 9.81305L11.3124 11.3124L11.27 12.8118L10.6639 12.7947L10.7064 11.2953Z" fill="#939393"/>
</svg>
