<svg width="20" height="17" viewBox="0 0 20 17" fill="none" xmlns="http://www.w3.org/2000/svg">
  <path d="M10 12C11.6569 12 13 10.6569 13 9C13 7.3431 11.6569 6 10 6C8.3431 6 7 7.3431 7 9C7 10.6569 8.3431 12 10 12Z" stroke="#353535" stroke-width="2" stroke-linecap="round" stroke-linejoin="round"/>
  <path d="M1 13V5.875C1 4.82491 1 4.29985 1.21799 3.89877C1.40973 3.54596 1.71569 3.25912 2.09202 3.07937C2.51984 2.875 3.0799 2.875 4.2 2.875H5.25464C5.37758 2.875 5.43905 2.875 5.49576 2.86891C5.79166 2.83713 6.05705 2.68337 6.21969 2.44946C6.25086 2.40463 6.27836 2.35308 6.33333 2.25C6.44329 2.04383 6.49827 1.94074 6.56062 1.85108C6.8859 1.38327 7.41668 1.07573 8.0085 1.01218C8.1219 1 8.2448 1 8.4907 1H11.5093C11.7552 1 11.8781 1 11.9915 1.01218C12.5833 1.07573 13.1141 1.38327 13.4394 1.85108C13.5017 1.94073 13.5567 2.04386 13.6667 2.25C13.7216 2.35308 13.7491 2.40463 13.7803 2.44946C13.943 2.68337 14.2083 2.83713 14.5042 2.86891C14.561 2.875 14.6224 2.875 14.7454 2.875H15.8C16.9201 2.875 17.4802 2.875 17.908 3.07937C18.2843 3.25912 18.5903 3.54596 18.782 3.89877C19 4.29985 19 4.82491 19 5.875V13C19 14.0501 19 14.5752 18.782 14.9763C18.5903 15.329 18.2843 15.6159 17.908 15.7956C17.4802 16 16.9201 16 15.8 16H4.2C3.0799 16 2.51984 16 2.09202 15.7956C1.71569 15.6159 1.40973 15.329 1.21799 14.9763C1 14.5752 1 14.0501 1 13Z" stroke="#353535" stroke-width="2" stroke-linecap="round" stroke-linejoin="round"/>
</svg>
