<svg width="100" height="100" viewBox="0 0 24 24" xmlns="http://www.w3.org/2000/svg">
  <path fill="#4285F4" d="M12 8.4C10 8.4 8.4 10 8.4 12C8.4 14 10 15.6 12 15.6C14 15.6 15.6 14 15.6 12C15.6 10 14 8.4 12 8.4ZM19.43 12.98C19.48 12.66 19.5 12.33 19.5 12C19.5 11.67 19.48 11.34 19.43 11.02L21.54 9.36C21.73 9.22 21.78 8.95 21.66 8.74L19.66 5.26C19.53 5.05 19.27 4.98 19.05 5.05L16.56 6.05C16.04 5.67 15.47 5.36 14.86 5.13L14.5 2.5C14.47 2.22 14.23 2 13.95 2H10.05C9.77 2 9.53 2.22 9.5 2.5L9.14 5.13C8.53 5.36 7.96 5.67 7.44 6.05L4.95 5.05C4.73 4.97 4.47 5.05 4.34 5.26L2.34 8.74C2.22 8.95 2.27 9.22 2.46 9.36L4.57 11.02C4.52 11.34 4.5 11.67 4.5 12C4.5 12.33 4.52 12.66 4.57 12.98L2.46 14.64C2.27 14.78 2.22 15.05 2.34 15.26L4.34 18.74C4.47 18.95 4.73 19.03 4.95 18.95L7.44 17.95C7.96 18.33 8.53 18.64 9.14 18.87L9.5 21.5C9.53 21.78 9.77 22 10.05 22H13.95C14.23 22 14.47 21.78 14.5 21.5L14.86 18.87C15.47 18.64 16.04 18.33 16.56 17.95L19.05 18.95C19.27 19.03 19.53 18.95 19.66 18.74L21.66 15.26C21.78 15.05 21.73 14.78 21.54 14.64L19.43 12.98Z"/>
  <circle cx="12" cy="12" r="3.5" fill="white"/>
</svg>
