<?xml version="1.0" encoding="UTF-8" standalone="no"?>
<!-- Uploaded to: SVG Repo, www.svgrepo.com, Generator: SVG Repo Mixer Tools -->

<svg
   fill="#000000"
   height="800px"
   width="800px"
   version="1.1"
   id="Capa_1"
   viewBox="0 0 481.6 481.6"
   xml:space="preserve"
   xmlns="http://www.w3.org/2000/svg"
   xmlns:svg="http://www.w3.org/2000/svg"><defs
   id="defs1" />
<g
   id="g1">
	<path
   d="m 374.5199,306.25553 c -26.81783,0 -50.73121,12.77961 -66.02802,32.52993 L 180.40525,267.23897 c 3.00128,-8.61657 4.64714,-17.91083 4.64714,-27.49555 0,-9.68152 -1.64586,-18.87898 -4.74395,-27.59235 l 127.98981,-71.44968 c 15.2,19.84713 39.21019,32.72356 66.12484,32.72356 45.89044,0 83.35796,-37.3707 83.35796,-83.357962 0,-45.987261 -37.3707,-83.3579618 -83.35796,-83.3579618 -45.98726,0 -83.35796,37.3707008 -83.35796,83.3579618 0,9.681529 1.64586,18.975802 4.74395,27.592362 l -127.893,71.44968 c -15.2,-19.94395 -39.21019,-32.72357 -66.12484,-32.72357 -45.890445,0 -83.357961,37.3707 -83.357961,83.35796 0,45.98727 37.467516,83.35797 83.454781,83.35797 26.91465,0 50.92484,-12.87644 66.22165,-32.82039 l 127.98981,71.5465 c -3.09809,8.71338 -4.84076,18.10446 -4.84076,27.78599 0,45.89044 37.3707,83.35796 83.35796,83.35796 45.98726,0 83.35796,-37.3707 83.35796,-83.35796 0,-45.98726 -37.46751,-83.35796 -83.45478,-83.35796 z m 0,-273.309561 c 31.56179,0 57.21784,25.656051 57.21784,57.217834 0,31.561787 -25.65605,57.217837 -57.21784,57.217837 -31.56178,0 -57.21783,-25.65605 -57.21783,-57.217837 0,-31.561783 25.75287,-57.217834 57.21783,-57.217834 z M 101.88806,296.96126 c -31.561788,0 -57.217839,-25.65605 -57.217839,-57.21784 0,-31.56178 25.656051,-57.21783 57.217839,-57.21783 31.56178,0 57.21783,25.65605 57.21783,57.21783 0,31.56179 -25.75286,57.21784 -57.21783,57.21784 z M 374.5199,446.73451 c -31.56178,0 -57.21783,-25.65605 -57.21783,-57.21784 0,-31.56178 25.65605,-57.21783 57.21783,-57.21783 31.56179,0 57.21784,25.65605 57.21784,57.21783 0,31.56179 -25.65605,57.21784 -57.21784,57.21784 z"
   id="path1"
   style="fill:#80b1eb;fill-opacity:1;fill-rule:nonzero;stroke-width:0.968153" />
<circle
   style="fill:#417bd6;fill-opacity:1;fill-rule:nonzero;stroke-width:0.53854"
   id="path3"
   cx="103.08421"
   cy="240.69003"
   r="86.114082" /><circle
   style="fill:#417bd6;fill-opacity:1;fill-rule:nonzero;stroke-width:0.53854"
   id="circle4"
   cx="375.58994"
   cy="92.256546"
   r="86.114082" /><circle
   style="fill:#417bd6;fill-opacity:1;fill-rule:nonzero;stroke-width:0.53854"
   id="circle5"
   cx="375.58994"
   cy="391.38968"
   r="86.114082" /></g>
</svg>
