<svg width="29" height="28" viewBox="0 0 29 28" fill="none" xmlns="http://www.w3.org/2000/svg">
  <path d="M13.4903 0.653128C13.8124 -0.217643 15.044 -0.217641 15.3661 0.653131L18.3637 8.75692C18.5038 9.13567 18.8579 9.39299 19.2614 9.40919L27.8949 9.75581C28.8226 9.79306 29.2032 10.9644 28.4745 11.5398L21.6937 16.8948C21.3767 17.1451 21.2415 17.5615 21.3507 17.9502L23.689 26.2682C23.9402 27.162 22.9438 27.8859 22.1714 27.3708L14.9831 22.5766C14.6471 22.3525 14.2093 22.3525 13.8734 22.5766L6.68502 27.3708C5.91261 27.8859 4.91623 27.162 5.16748 26.2682L7.5057 17.9502C7.61498 17.5615 7.4797 17.1451 7.16278 16.8948L0.381911 11.5398C-0.34671 10.9644 0.0338786 9.79306 0.961564 9.75581L9.59501 9.40919C9.99853 9.39299 10.3527 9.13567 10.4928 8.75691L13.4903 0.653128Z" fill="url(#paint0_linear_94_47)"/>
  <defs>
    <linearGradient id="paint0_linear_94_47" x1="1.26693" y1="-1.33406" x2="27.0411" y2="30.4724" gradientUnits="userSpaceOnUse">
      <stop stop-color="#FEDD2C" stop-opacity="0.57"/>
      <stop offset="1" stop-color="#FEDD2C" stop-opacity="0.8"/>
    </linearGradient>
  </defs>
</svg>
