<svg width="16" height="22" viewBox="0 0 16 22" fill="none" xmlns="http://www.w3.org/2000/svg">
<path d="M9 6C9 5.44772 8.55228 5 8 5C7.44772 5 7 5.44772 7 6H8H9ZM7.29289 21.7071C7.68342 22.0976 8.31658 22.0976 8.70711 21.7071L15.0711 15.3431C15.4616 14.9526 15.4616 14.3195 15.0711 13.9289C14.6805 13.5384 14.0474 13.5384 13.6569 13.9289L8 19.5858L2.34315 13.9289C1.95262 13.5384 1.31946 13.5384 0.928932 13.9289C0.538408 14.3195 0.538408 14.9526 0.928932 15.3431L7.29289 21.7071ZM8 6H7L7 21H8H9V6H8Z" fill="#8FA6B5"/>
<path d="M2 6C2 6.55228 1.55228 7 1 7C0.447715 7 2.41411e-08 6.55228 0 6L1 6L2 6ZM1 6L0 6L-2.62268e-07 4.37114e-08L1 0L2 -4.37114e-08L2 6L1 6Z" fill="#8FA6B5"/>
<path d="M0 1H16" stroke="#8FA6B5" stroke-width="2"/>
<path d="M14 6.5C14 7.05228 14.4477 7.5 15 7.5C15.5523 7.5 16 7.05228 16 6.5H15H14ZM15 6.5H16V1H15H14V6.5H15Z" fill="#8FA6B5"/>
</svg>
